<svg xmlns="http://www.w3.org/2000/svg" width="48" height="48" viewBox="0 0 48 48">
  <rect width="48" height="48" rx="11" fill="#0052cc"/>
  <g stroke="#ffffff" stroke-width="2" stroke-linecap="round" opacity="0.95">
    <path d="M24 9 L37 16.5 L37 31.5 L24 39 L11 31.5 L11 16.5 Z" fill="none"/>
    <path d="M24 9 L24 24 M37 16.5 L24 24 M37 31.5 L24 24 M24 39 L24 24 M11 31.5 L24 24 M11 16.5 L24 24"/>
  </g>
  <g fill="#b9d6fb">
    <circle cx="24" cy="9" r="2.6"/><circle cx="37" cy="16.5" r="2.6"/><circle cx="37" cy="31.5" r="2.6"/>
    <circle cx="24" cy="39" r="2.6"/><circle cx="11" cy="31.5" r="2.6"/><circle cx="11" cy="16.5" r="2.6"/>
  </g>
  <circle cx="24" cy="24" r="4" fill="#ffffff"/>
</svg>
